<svg width="23" height="23" viewBox="0 0 23 23" fill="none" xmlns="http://www.w3.org/2000/svg">
<rect x="0.81665" y="0.877075" width="21.55" height="21.55" stroke="#999999"/>
<path fill-rule="evenodd" clip-rule="evenodd" d="M11.5917 4.60522C11.9808 4.60522 12.2963 4.92072 12.2963 5.30991V17.9943C12.2963 18.3835 11.9808 18.699 11.5917 18.699C11.2025 18.699 10.887 18.3835 10.887 17.9943V5.30991C10.887 4.92072 11.2025 4.60522 11.5917 4.60522Z" fill="#999999"/>
<path fill-rule="evenodd" clip-rule="evenodd" d="M4.54468 11.6521C4.54468 11.2629 4.86018 10.9474 5.24937 10.9474H17.9337C18.3229 10.9474 18.6384 11.2629 18.6384 11.6521C18.6384 12.0413 18.3229 12.3568 17.9337 12.3568H5.24937C4.86018 12.3568 4.54468 12.0413 4.54468 11.6521Z" fill="#999999"/>
<rect x="0.81665" y="0.877075" width="21.55" height="21.55" stroke="#999999"/>
</svg>
